<?xml version="1.0" standalone="no"?><!DOCTYPE svg PUBLIC "-//W3C//DTD SVG 1.1//EN" "http://www.w3.org/Graphics/SVG/1.1/DTD/svg11.dtd"><svg t="1649251462011" class="icon" viewBox="0 0 1024 1024" version="1.1" xmlns="http://www.w3.org/2000/svg" p-id="4647" xmlns:xlink="http://www.w3.org/1999/xlink" width="200" height="200"><defs><style type="text/css">@font-face { font-family: feedback-iconfont; src: url("//at.alicdn.com/t/font_1031158_u69w8yhxdu.woff2?t=1630033759944") format("woff2"), url("//at.alicdn.com/t/font_1031158_u69w8yhxdu.woff?t=1630033759944") format("woff"), url("//at.alicdn.com/t/font_1031158_u69w8yhxdu.ttf?t=1630033759944") format("truetype"); }
</style></defs><path d="M512 1024a25.6 25.6 0 0 1-20.1216-9.7792c-2.9184-3.7376-72.6016-92.8768-143.2064-224.512-41.5744-77.4656-74.752-153.5488-98.56-226.0992C220.0576 472.1152 204.8512 385.8432 204.8512 307.2c0-169.3696 137.8304-307.2 307.2-307.2s307.2 137.8304 307.2 307.2c0 78.6432-15.2576 164.864-45.2608 256.4096-23.808 72.5504-56.9856 148.6336-98.56 226.0992-70.656 131.6352-140.288 220.7744-143.2064 224.512a25.6 25.6 0 0 1-20.1216 9.7792z m0-972.8C370.8416 51.2 256 166.0416 256 307.2c0 166.6048 74.9056 341.1968 137.7792 458.2912A1761.8432 1761.8432 0 0 0 512 955.4432a1760.256 1760.256 0 0 0 118.6816-190.7712C693.2992 647.7824 768 473.4976 768 307.2c0-141.1584-114.8416-256-256-256z" p-id="4648"></path><path d="M512 460.8C427.3152 460.8 358.4 391.8848 358.4 307.2s68.9152-153.6 153.6-153.6 153.6 68.9152 153.6 153.6-68.9152 153.6-153.6 153.6z m0-256c-56.4736 0-102.4 45.9264-102.4 102.4s45.9264 102.4 102.4 102.4 102.4-45.9264 102.4-102.4-45.9264-102.4-102.4-102.4z" p-id="4649"></path></svg>